<svg xmlns="http://www.w3.org/2000/svg"  viewBox="0 0 100 100" width="200px" height="200px"><path fill="#f1bc19" d="M78 13A1 1 0 1 0 78 15A1 1 0 1 0 78 13Z"/><path fill="#f9dbd2" d="M50 12A38 38 0 1 0 50 88A38 38 0 1 0 50 12Z"/><path fill="#f1bc19" d="M84 12A4 4 0 1 0 84 20A4 4 0 1 0 84 12Z"/><path fill="#ee3e54" d="M14 24A2 2 0 1 0 14 28A2 2 0 1 0 14 24Z"/><path fill="#fbcd59" d="M78 75A2 2 0 1 0 78 79 2 2 0 1 0 78 75zM17 74A4 4 0 1 0 17 82 4 4 0 1 0 17 74z"/><path fill="#ee3e54" d="M24 81A2 2 0 1 0 24 85A2 2 0 1 0 24 81Z"/><path fill="#fff" d="M66.483 76.03399999999999A2.483 2.483 0 1 0 66.483 81 2.483 2.483 0 1 0 66.483 76.03399999999999zM16 47A1 1 0 1 0 16 49 1 1 0 1 0 16 47z"/><path fill="#f1bc19" d="M86 30A1 1 0 1 0 86 32A1 1 0 1 0 86 30Z"/><path fill="#fff" d="M80 64A2 2 0 1 0 80 68A2 2 0 1 0 80 64Z"/><g><path fill="#bebacb" d="M51.625 39.375H81.625V51.5H51.625z"/></g><g><path fill="#d6d3c5" d="M28.7,60.3V35.541c0-5.978,4.863-10.841,10.841-10.841h0.918c5.978,0,10.841,4.863,10.841,10.841 V60.3H28.7z"/><path fill="#472b29" d="M40.459,25.4c5.592,0,10.141,4.549,10.141,10.141V59.6H29.4V35.541 c0-5.592,4.549-10.141,10.141-10.141H40.459 M40.459,24h-0.918C33.167,24,28,29.167,28,35.541V61h24V35.541 C52,29.167,46.833,24,40.459,24L40.459,24z"/></g><g><path fill="#472b29" d="M47.75 56.929c-.138 0-.25-.112-.25-.25V36.439c0-.138.112-.25.25-.25S48 36.302 48 36.439v20.239C48 56.816 47.888 56.929 47.75 56.929zM32.25 56.929c-.138 0-.25-.112-.25-.25V35.951c0-.138.112-.25.25-.25s.25.112.25.25v20.728C32.5 56.816 32.388 56.929 32.25 56.929z"/><path fill="#472b29" d="M32.25,36.201c-0.138,0-0.25-0.112-0.25-0.25c0-2.218,0.894-4.354,2.452-5.858 C35.849,28.743,37.66,28,39.553,28h0.895c0.882,0,1.746,0.159,2.568,0.474c0.129,0.049,0.193,0.193,0.144,0.322 c-0.049,0.13-0.193,0.196-0.323,0.145c-0.765-0.292-1.569-0.44-2.39-0.44h-0.895c-1.762,0-3.451,0.693-4.753,1.952 c-1.461,1.411-2.299,3.416-2.299,5.499C32.5,36.089,32.388,36.201,32.25,36.201z"/><g><path fill="#472b29" d="M47.175,33.207c-0.099,0-0.193-0.06-0.232-0.157c-0.356-0.887-0.866-1.684-1.516-2.369 c-0.095-0.1-0.091-0.258,0.009-0.354c0.1-0.095,0.258-0.091,0.353,0.01c0.694,0.73,1.238,1.581,1.618,2.527 c0.051,0.128-0.011,0.273-0.139,0.325C47.238,33.201,47.207,33.207,47.175,33.207z"/></g></g><g><path fill="#472b29" d="M40 69.875A3 3 0 1 0 40 75.875A3 3 0 1 0 40 69.875Z"/></g><g><path fill="#472b29" d="M40,72.2c-0.387,0-0.7-0.313-0.7-0.7V60.292c0-0.387,0.313-0.7,0.7-0.7s0.7,0.313,0.7,0.7V71.5 C40.7,71.887,40.387,72.2,40,72.2z"/></g><g><path fill="#472b29" d="M80.517,51.842H52.275c-0.387,0-0.7-0.313-0.7-0.7s0.313-0.7,0.7-0.7h28.241 c0.387,0,0.7,0.313,0.7,0.7S80.903,51.842,80.517,51.842z"/></g><g><path fill="#472b29" d="M80.49,40.366H52.186c-0.387,0-0.7-0.313-0.7-0.7s0.313-0.7,0.7-0.7H80.49 c0.387,0,0.7,0.313,0.7,0.7S80.877,40.366,80.49,40.366z"/></g><g><path fill="#472b29" d="M70.75,47.75H55.125c-0.138,0-0.25-0.112-0.25-0.25s0.112-0.25,0.25-0.25H70.75 c0.138,0,0.25,0.112,0.25,0.25S70.888,47.75,70.75,47.75z"/></g><g><path fill="#472b29" d="M79.75,47.75h-5.375c-0.138,0-0.25-0.112-0.25-0.25s0.112-0.25,0.25-0.25h5.375 c0.138,0,0.25,0.112,0.25,0.25S79.888,47.75,79.75,47.75z"/></g></svg>