<svg xmlns="http://www.w3.org/2000/svg"  viewBox="0 0 100 100" width="200px" height="200px" baseProfile="basic"><path fill="#ee3e54" d="M12.725,26.858c-1.105,0-2,0.895-2,2s0.895,2,2,2s2-0.895,2-2S13.83,26.858,12.725,26.858z"/><path fill="#f1bc19" d="M76.725,11.858c-0.551,0-1,0.449-1,1s0.449,1,1,1s1-0.449,1-1S77.276,11.858,76.725,11.858z"/><path fill="#fce0a2" d="M49.725,12.608c-20.434,0-37,16.566-37,37s16.566,37,37,37s37-16.566,37-37 S70.159,12.608,49.725,12.608z"/><path fill="#f1bc19" d="M82.725,10.858c-2.211,0-4,1.789-4,4s1.789,4,4,4s4-1.789,4-4S84.936,10.858,82.725,10.858z"/><path fill="#ee3e54" d="M86.725,21.858c-1.105,0-2,0.895-2,2s0.895,2,2,2s2-0.895,2-2S87.83,21.858,86.725,21.858z"/><path fill="#fbcd59" d="M80.725,73.858c-1.105,0-2,0.895-2,2s0.895,2,2,2s2-0.895,2-2S81.83,73.858,80.725,73.858z M14.725,58.858c-2.211,0-4,1.789-4,4s1.789,4,4,4s4-1.789,4-4S16.936,58.858,14.725,58.858z"/><path fill="#ee3e54" d="M24.725,84.858c-1.105,0-2,0.895-2,2s0.895,2,2,2s2-0.895,2-2S25.83,84.858,24.725,84.858z"/><path fill="#fff" d="M18.225,40.858c-1.379,0-2.5,1.121-2.5,2.5s1.121,2.5,2.5,2.5s2.5-1.121,2.5-2.5 S19.604,40.858,18.225,40.858z"/><path fill="#f1bc19" d="M20.725,64.858c-0.551,0-1,0.449-1,1s0.449,1,1,1s1-0.449,1-1S21.276,64.858,20.725,64.858z"/><path fill="#fff" d="M79.725,31.858c-0.551,0-1,0.449-1,1s0.449,1,1,1s1-0.449,1-1S80.276,31.858,79.725,31.858z"/><g><path fill="#beace5" d="M34.933,46.044c-0.529,0-0.932-0.148-1.198-0.439c-0.253-0.277-0.382-0.629-0.382-1.045 c0-0.505,0.161-1.033,0.477-1.572l6.342-11.224h-4.71c-0.529,0-0.963-0.253-1.255-0.731c-0.248-0.404-0.373-0.876-0.373-1.4 c0-0.478,0.107-0.93,0.318-1.344c0.26-0.508,0.725-0.788,1.31-0.788h9.264c0.508,0,0.904,0.145,1.178,0.431 c0.263,0.275,0.402,0.64,0.402,1.054c0,0.469-0.158,0.993-0.47,1.561L39.486,41.78h5.67c0.555,0,0.998,0.272,1.279,0.787 c0.232,0.428,0.35,0.88,0.35,1.345c0,0.466-0.117,0.917-0.349,1.343c-0.282,0.517-0.724,0.789-1.28,0.789H34.933z"/><path fill="#beace5" d="M34.25,71.5c-0.529,0-0.932-0.148-1.198-0.439c-0.253-0.277-0.382-0.629-0.382-1.045 c0-0.505,0.161-1.033,0.477-1.572l6.342-11.224h-4.71c-0.529,0-0.963-0.253-1.255-0.731c-0.248-0.404-0.373-0.876-0.373-1.4 c0-0.478,0.107-0.93,0.318-1.344c0.26-0.508,0.725-0.788,1.31-0.788h9.264c0.508,0,0.904,0.145,1.178,0.431 c0.263,0.275,0.402,0.64,0.402,1.054c0,0.469-0.158,0.993-0.47,1.561l-6.349,11.235h5.67c0.555,0,0.998,0.272,1.279,0.787 c0.232,0.428,0.35,0.88,0.35,1.345c0,0.466-0.117,0.917-0.349,1.343c-0.282,0.517-0.724,0.789-1.28,0.789H34.25z"/><path fill="#beace5" d="M50.973,62.5c-0.72,0-1.263-0.194-1.612-0.577c-0.337-0.368-0.508-0.839-0.508-1.398 c0-0.712,0.229-1.464,0.68-2.233L59.26,41.08h-7.495c-0.702,0-1.279-0.338-1.669-0.979c-0.347-0.566-0.523-1.229-0.523-1.97 c0-0.677,0.152-1.317,0.452-1.901c0.35-0.685,0.952-1.047,1.741-1.047H65.66c0.69,0,1.223,0.191,1.585,0.567 c0.355,0.373,0.535,0.847,0.535,1.409c0,0.659-0.227,1.406-0.674,2.22l-9.733,17.224h8.936c0.735,0,1.323,0.364,1.699,1.054 c0.327,0.599,0.493,1.235,0.493,1.895s-0.166,1.297-0.493,1.896c-0.375,0.688-0.963,1.053-1.699,1.053H50.973z"/></g><g><path fill="#472b29" d="M44.725,28c0.368,0,0.64,0.092,0.816,0.276c0.176,0.184,0.264,0.42,0.264,0.708 c0,0.384-0.136,0.824-0.408,1.319L39.05,41.534c-0.188,0.333,0.052,0.746,0.435,0.746h5.671c0.368,0,0.648,0.176,0.841,0.527 c0.191,0.353,0.288,0.721,0.288,1.104s-0.097,0.752-0.288,1.104c-0.192,0.353-0.473,0.528-0.841,0.528H34.933 c-0.384,0-0.66-0.092-0.828-0.276c-0.168-0.184-0.252-0.42-0.252-0.708c0-0.415,0.136-0.855,0.408-1.319l6.346-11.231 c0.188-0.333-0.052-0.746-0.435-0.746h-4.711c-0.353,0-0.628-0.164-0.828-0.492c-0.2-0.327-0.3-0.708-0.3-1.14 c0-0.399,0.088-0.771,0.264-1.116C34.772,28.172,35.061,28,35.461,28H44.725 M44.725,26.6h-9.264c-0.926,0-1.695,0.466-2.111,1.278 c-0.277,0.543-0.417,1.133-0.417,1.754c0,0.693,0.17,1.322,0.506,1.87c0.457,0.748,1.175,1.161,2.022,1.161h3.168l-5.587,9.888 c-0.387,0.659-0.589,1.341-0.589,2.008c0,0.639,0.214,1.21,0.619,1.653c0.302,0.332,0.873,0.731,1.861,0.731h10.224 c0.879,0,1.634-0.458,2.07-1.258c0.305-0.56,0.459-1.157,0.459-1.774c0-0.617-0.154-1.213-0.458-1.773 c-0.439-0.802-1.193-1.259-2.071-1.259h-4.128l5.587-9.888c0.394-0.715,0.589-1.386,0.589-2.008c0-0.651-0.226-1.23-0.652-1.676 C46.243,26.985,45.675,26.6,44.725,26.6L44.725,26.6z"/><path fill="#472b29" d="M44.042,53.456c0.368,0,0.64,0.092,0.816,0.276c0.176,0.184,0.264,0.42,0.264,0.708 c0,0.384-0.136,0.824-0.408,1.319L38.368,66.99c-0.188,0.333,0.052,0.746,0.435,0.746h5.671c0.368,0,0.648,0.176,0.841,0.527 c0.191,0.353,0.288,0.721,0.288,1.104s-0.097,0.752-0.288,1.104C45.122,70.824,44.842,71,44.474,71H34.25 c-0.384,0-0.66-0.092-0.828-0.276c-0.168-0.184-0.252-0.42-0.252-0.708c0-0.415,0.136-0.855,0.408-1.319l6.346-11.231 c0.188-0.333-0.052-0.746-0.435-0.746h-4.711c-0.353,0-0.628-0.164-0.828-0.492c-0.2-0.327-0.3-0.708-0.3-1.14 c0-0.399,0.088-0.771,0.264-1.116c0.176-0.344,0.464-0.516,0.864-0.516H44.042 M44.042,52.056h-9.264 c-0.926,0-1.695,0.466-2.111,1.278c-0.277,0.543-0.417,1.133-0.417,1.754c0,0.693,0.17,1.322,0.506,1.87 c0.457,0.748,1.175,1.161,2.022,1.161h3.168l-5.587,9.888c-0.387,0.659-0.589,1.341-0.589,2.008c0,0.639,0.214,1.21,0.619,1.653 c0.302,0.332,0.873,0.731,1.861,0.731h10.224c0.879,0,1.634-0.458,2.07-1.258c0.305-0.56,0.459-1.156,0.459-1.774 c0-0.617-0.154-1.213-0.458-1.773c-0.439-0.802-1.193-1.259-2.071-1.259h-4.128l5.587-9.888c0.394-0.715,0.589-1.386,0.589-2.008 c0-0.651-0.226-1.23-0.652-1.676C45.56,52.441,44.992,52.056,44.042,52.056L44.042,52.056z"/><path fill="#472b29" d="M65.66,35.684c0.552,0,0.96,0.139,1.225,0.414c0.264,0.276,0.396,0.63,0.396,1.063 c0,0.576-0.204,1.236-0.612,1.979l-9.73,17.218c-0.188,0.333,0.052,0.746,0.435,0.746h8.935c0.552,0,0.972,0.265,1.26,0.793 C67.856,58.424,68,58.976,68,59.552s-0.144,1.129-0.432,1.656C67.28,61.736,66.86,62,66.309,62H50.973 c-0.576,0-0.99-0.138-1.242-0.414c-0.252-0.275-0.378-0.63-0.378-1.062c0-0.624,0.203-1.284,0.611-1.98l9.731-17.218 c0.188-0.333-0.052-0.746-0.435-0.746h-7.495c-0.528,0-0.942-0.246-1.242-0.738c-0.301-0.491-0.45-1.062-0.45-1.71 c0-0.6,0.132-1.157,0.396-1.674c0.264-0.516,0.695-0.774,1.296-0.774H65.66 M65.66,34.284H51.765c-1.133,0-2.036,0.546-2.542,1.537 c-0.365,0.712-0.55,1.49-0.55,2.311c0,0.909,0.221,1.73,0.656,2.441c0.552,0.906,1.418,1.407,2.436,1.407h5.952l-8.972,15.875 c-0.522,0.89-0.793,1.795-0.793,2.669c0,0.78,0.258,1.474,0.745,2.007c0.525,0.576,1.291,0.869,2.275,0.869h15.336 c1.07,0,1.954-0.54,2.489-1.522c0.4-0.731,0.602-1.515,0.602-2.326c0-0.811-0.203-1.594-0.603-2.326 c-0.535-0.981-1.419-1.522-2.488-1.522h-7.393l8.971-15.875c0.537-0.977,0.793-1.845,0.793-2.668c0-0.791-0.271-1.492-0.783-2.029 C67.356,34.568,66.604,34.284,65.66,34.284L65.66,34.284z"/><path fill="#472b29" d="M64.25,41c-0.04,0-0.08-0.01-0.118-0.029c-0.122-0.065-0.168-0.217-0.103-0.338l1.254-2.353 c0.117-0.22,0.11-0.478-0.017-0.69c-0.128-0.213-0.352-0.34-0.601-0.34H53.5c-0.138,0-0.25-0.112-0.25-0.25s0.112-0.25,0.25-0.25 h11.166c0.426,0,0.811,0.218,1.029,0.583s0.23,0.807,0.03,1.183l-1.254,2.352C64.426,40.952,64.339,41,64.25,41z"/><path fill="#472b29" d="M43.5,70h-8.231c-0.305,0-0.582-0.156-0.738-0.418c-0.157-0.262-0.165-0.579-0.021-0.849 l1.521-2.851c0.066-0.123,0.217-0.166,0.338-0.104c0.122,0.065,0.168,0.217,0.103,0.338l-1.521,2.852 c-0.062,0.115-0.058,0.245,0.009,0.356c0.066,0.111,0.18,0.175,0.31,0.175H43.5c0.138,0,0.25,0.112,0.25,0.25S43.638,70,43.5,70z"/><path fill="#472b29" d="M65.25,60.25H52c-0.138,0-0.25,0.112-0.25,0.25s0.112,0.25,0.25,0.25h13.25 c0.138,0,0.25-0.112,0.25-0.25S65.388,60.25,65.25,60.25z"/><path fill="#472b29" d="M44,29h-8.25c-0.138,0-0.25,0.112-0.25,0.25s0.112,0.25,0.25,0.25H44c0.138,0,0.25-0.112,0.25-0.25 S44.138,29,44,29z"/><path fill="#472b29" d="M63.624,42.033c-0.12-0.069-0.272-0.028-0.341,0.093l-1,1.75c-0.068,0.12-0.027,0.272,0.093,0.341 c0.039,0.022,0.082,0.033,0.124,0.033c0.086,0,0.171-0.045,0.217-0.126l1-1.75C63.786,42.254,63.744,42.102,63.624,42.033z"/></g></svg>