<svg xmlns="http://www.w3.org/2000/svg"  viewBox="0 0 100 100" width="200px" height="200px"><path fill="#f1bc19" d="M77 12A1 1 0 1 0 77 14A1 1 0 1 0 77 12Z"/><path fill="#e4e4f9" d="M50 13A37 37 0 1 0 50 87A37 37 0 1 0 50 13Z"/><path fill="#f1bc19" d="M83 11A4 4 0 1 0 83 19A4 4 0 1 0 83 11Z"/><path fill="#8889b9" d="M87 22A2 2 0 1 0 87 26A2 2 0 1 0 87 22Z"/><path fill="#fbcd59" d="M81 74A2 2 0 1 0 81 78 2 2 0 1 0 81 74zM15 59A4 4 0 1 0 15 67 4 4 0 1 0 15 59z"/><path fill="#8889b9" d="M25 85A2 2 0 1 0 25 89A2 2 0 1 0 25 85Z"/><path fill="#fff" d="M18.5 49A2.5 2.5 0 1 0 18.5 54 2.5 2.5 0 1 0 18.5 49zM79.5 32A1.5 1.5 0 1 0 79.5 35 1.5 1.5 0 1 0 79.5 32z"/><path fill="#fefdef" d="M58.444,46.688c-0.138,0-0.25-0.112-0.25-0.25V39.75l-16.444-0.03v6.687 c0,0.138-0.111,0.25-0.25,0.25l-11.618,0.031c1.37,3.355,3.548,6.343,4.723,10.619C36.6,64.748,37.398,74,42.085,74 c2.493,0,3.658-1.719,3.658-4.937c0-4.525,1.229-10.349,2.127-15.377c0.499-2.414,3.89-2.414,4.289,0 c0.898,4.928,2.128,10.989,2.128,15.514c0,3.218,1.163,4.8,3.657,4.8c4.688,0,5.486-9.352,7.48-16.694 c1.174-4.276,3.353-7.264,4.723-10.619H58.444z"/><path fill="#fef6aa" d="M41.25,46.157v-6.688c0-0.066,0.026-0.13,0.073-0.177s0.11-0.073,0.177-0.073h0l16.944,0.031 c0.139,0,0.25,0.112,0.25,0.25v6.688H70.35c0.615-1.627,1.024-3.357,1.024-5.374c0.1-8.95-5.451-15.085-15.325-15.085 c-2.294,0-4.289,0.302-5.984,0.905c-1.695-0.603-3.69-0.905-5.984-0.905c-9.874,0-15.424,6.134-15.424,15.085 c0,2.017,0.408,3.747,1.023,5.374L41.25,46.157z"/><path fill="#472b29" d="M57.943,74.7c-2.891,0-4.356-1.851-4.356-5.5c0-3.943-0.955-9.103-1.798-13.655l-0.319-1.733 c-0.148-0.896-0.813-1.224-1.386-1.235c-0.585,0.026-1.333,0.31-1.528,1.251c-0.138,0.773-0.287,1.584-0.439,2.406 c-0.823,4.463-1.673,9.079-1.673,12.829c0,4.659-2.37,5.637-4.358,5.637c-4.256,0-5.593-6.01-7.009-12.373 c-0.358-1.611-0.729-3.277-1.148-4.84c-0.713-2.599-1.819-4.722-2.887-6.774c-1.586-3.048-3.085-5.926-3.085-9.899 c0-9.736,6.179-15.785,16.124-15.785c2.259,0,4.271,0.291,5.984,0.865c1.713-0.574,3.725-0.865,5.984-0.865 c4.942,0,9.05,1.512,11.878,4.372c2.765,2.796,4.199,6.746,4.147,11.421c0,3.965-1.499,6.844-3.086,9.891 c-1.069,2.052-2.175,4.175-2.89,6.779c-0.426,1.568-0.803,3.256-1.168,4.89C63.516,68.716,62.18,74.7,57.943,74.7z M50.053,51.176 c0.02,0,0.039,0,0.059,0c1.405,0.028,2.505,0.991,2.737,2.396l0.316,1.718c0.854,4.611,1.822,9.838,1.822,13.91 c0,3.613,1.494,4.1,2.956,4.1c3.114,0,4.389-5.706,5.621-11.224c0.368-1.648,0.749-3.353,1.184-4.954 c0.755-2.749,1.896-4.939,2.998-7.057c1.506-2.891,2.928-5.622,2.928-9.252c0.048-4.301-1.246-7.905-3.743-10.429 c-2.559-2.588-6.322-3.956-10.882-3.956c-2.203,0-4.138,0.291-5.75,0.865c-0.152,0.054-0.317,0.054-0.47,0 c-1.612-0.574-3.547-0.865-5.75-0.865c-9.082,0-14.724,5.512-14.724,14.385c0,3.631,1.421,6.361,2.927,9.252 c1.103,2.118,2.243,4.308,2.997,7.054c0.428,1.596,0.802,3.277,1.164,4.902c1.291,5.799,2.509,11.277,5.642,11.277 c1.27,0,2.958-0.439,2.958-4.237c0-3.878,0.863-8.558,1.697-13.083c0.151-0.82,0.3-1.628,0.441-2.417 C47.524,51.902,48.859,51.176,50.053,51.176z"/><path fill="#472b29" d="M65.172,32.391c-0.06,0-0.119-0.021-0.166-0.063c-2.02-1.8-4.656-2.798-7.837-2.968 c-0.138-0.007-0.243-0.125-0.236-0.263c0.009-0.137,0.096-0.25,0.264-0.236c3.25,0.173,6.065,1.243,8.142,3.094 c0.104,0.092,0.112,0.25,0.021,0.353C65.31,32.362,65.24,32.391,65.172,32.391z"/><g><path fill="#472b29" d="M58.115,71.101c-0.639,0-1.035-0.328-1.035-1.959c0-0.138,0.112-0.25,0.25-0.25 s0.25,0.112,0.25,0.25c0,1.344,0.251,1.45,0.478,1.459c1.09-0.624,2.367-6.444,2.916-8.949c0.367-1.673,0.74-3.375,1.176-5.005 c0.845-3.134,2.232-5.605,3.457-7.785c0.067-0.12,0.222-0.167,0.342-0.098c0.12,0.068,0.164,0.217,0.097,0.338 c-1.213,2.16-2.584,4.601-3.413,7.674c-0.432,1.619-0.804,3.315-1.164,4.957c-0.975,4.443-2.023,8.801-3.251,9.347 C58.185,71.093,58.15,71.101,58.115,71.101z"/></g><g><path fill="#472b29" d="M43.406,60.607c-0.012,0-0.024-0.001-0.036-0.002c-0.137-0.02-0.232-0.146-0.212-0.283 c0.225-1.583,0.502-3.293,0.849-5.227c0.105-0.591,0.211-1.168,0.316-1.727l0.015-0.074c0.576-2.671,2.923-4.507,5.727-4.507 c0.03,0,0.06,0,0.089,0c0.138,0.002,0.249,0.115,0.247,0.253c-0.002,0.137-0.12,0.241-0.253,0.247c-0.027,0-0.055,0-0.082,0 c-2.567,0-4.712,1.674-5.235,4.096l-0.016,0.079c-0.104,0.556-0.209,1.131-0.315,1.721c-0.346,1.929-0.623,3.632-0.846,5.209 C43.635,60.517,43.528,60.607,43.406,60.607z"/></g><g><path fill="#472b29" d="M41.81,71.101c-0.138,0-0.25-0.112-0.25-0.25c0-0.138,0.111-0.25,0.25-0.25 c0.299,0,0.608-0.001,0.608-1.46c0-1.077,0.049-2.267,0.146-3.536c0.011-0.138,0.149-0.239,0.269-0.23 c0.138,0.011,0.241,0.131,0.23,0.269c-0.096,1.256-0.145,2.434-0.145,3.498C42.918,70.779,42.512,71.1,41.81,71.101L41.81,71.101z"/></g><g><path fill="#f7931e" d="M48.988,54.538c0.001,0.006,0.002,0.012,0.003,0.018C48.99,54.55,48.989,54.544,48.988,54.538z"/></g><g><path fill="#472b29" d="M54.57,32.012c-0.2,0-0.399-0.086-0.538-0.252c-2.601-3.125-6.259-5.011-10.3-5.311 c-0.386-0.029-0.675-0.365-0.646-0.75c0.029-0.386,0.369-0.674,0.75-0.646c4.423,0.329,8.427,2.393,11.273,5.812 c0.247,0.297,0.207,0.738-0.09,0.986C54.888,31.958,54.729,32.012,54.57,32.012z"/></g><g><path fill="#472b29" d="M70.4,46.938H58.444c-0.276,0-0.5-0.224-0.5-0.5v-6.438L42,39.97v6.437c0,0.275-0.223,0.5-0.499,0.5 l-11.844,0.031c-0.228,0.007-0.501-0.223-0.501-0.499c0-0.276,0.223-0.5,0.499-0.501L41,45.908v-6.439 c0-0.133,0.053-0.26,0.147-0.354c0.094-0.093,0.221-0.146,0.353-0.146c0,0,0,0,0.001,0L58.445,39c0.275,0,0.499,0.224,0.499,0.5 v6.438H70.4c0.276,0,0.5,0.224,0.5,0.5S70.677,46.938,70.4,46.938z"/></g><g><path fill="#472b29" d="M31.602,40.535c-0.133,0-0.243-0.104-0.25-0.238c-0.003-0.071-0.004-0.142-0.006-0.214l-0.004-0.188 c-0.183-4.335,2.348-8.15,6.604-9.957c4.765-2.023,10.206-0.851,13.859,2.987c0.096,0.1,0.092,0.258-0.008,0.354 c-0.102,0.095-0.26,0.09-0.354-0.009c-3.511-3.686-8.732-4.812-13.302-2.872c-4.06,1.724-6.474,5.354-6.3,9.476l0.004,0.202 c0.001,0.066,0.002,0.131,0.005,0.196c0.007,0.138-0.1,0.255-0.237,0.262C31.61,40.535,31.606,40.535,31.602,40.535z"/></g><g><path fill="#472b29" d="M64.752 32.087c-.057 0-.114-.019-.161-.059-1.835-1.546-4.231-2.403-7.123-2.549-.138-.007-.244-.124-.237-.262.007-.137.096-.247.263-.237 3.003.151 5.499 1.048 7.42 2.665.105.089.119.247.03.353C64.894 32.057 64.823 32.087 64.752 32.087zM67.325 35.476c-.094 0-.185-.054-.227-.145-.327-.703-.728-1.357-1.191-1.944-.086-.108-.067-.266.041-.351.108-.084.266-.067.352.042.487.618.909 1.305 1.252 2.043.059.125.004.274-.121.332C67.396 35.469 67.36 35.476 67.325 35.476zM68.466 42c-.005 0-.01 0-.016 0-.138-.009-.242-.127-.234-.265.013-.199.019-.401.019-.607.014-1.292-.117-2.515-.389-3.638-.032-.134.05-.269.185-.302.133-.03.27.05.302.185.28 1.163.416 2.428.402 3.758 0 .214-.006.426-.019.636C68.707 41.898 68.597 42 68.466 42z"/></g></svg>