<svg xmlns="http://www.w3.org/2000/svg"  viewBox="0 0 100 100" width="200px" height="200px"><path fill="#f1bc19" d="M79 12A1 1 0 1 0 79 14A1 1 0 1 0 79 12Z"/><path fill="#c0e5e4" d="M50 13A37 37 0 1 0 50 87A37 37 0 1 0 50 13Z"/><path fill="#f1bc19" d="M85 11A4 4 0 1 0 85 19A4 4 0 1 0 85 11Z"/><path fill="#00a5a5" d="M13 27A2 2 0 1 0 13 31A2 2 0 1 0 13 27Z"/><path fill="#fbcd59" d="M80 76A2 2 0 1 0 80 80 2 2 0 1 0 80 76zM26 72A4 4 0 1 0 26 80 4 4 0 1 0 26 72z"/><path fill="#00a5a5" d="M27 85A2 2 0 1 0 27 89A2 2 0 1 0 27 85Z"/><path fill="#fff" d="M58.5 78A2.5 2.5 0 1 0 58.5 83 2.5 2.5 0 1 0 58.5 78zM23.029 68A.971.971 0 1 0 23.029 69.94200000000001.971.971 0 1 0 23.029 68z"/><path fill="#f1bc19" d="M85 30A1 1 0 1 0 85 32A1 1 0 1 0 85 30Z"/><path fill="#fff" d="M78 66A2 2 0 1 0 78 70 2 2 0 1 0 78 66zM79 33A1 1 0 1 0 79 35 1 1 0 1 0 79 33z"/><g><path fill="#b3b2c3" d="M54.25 70.917L49.958 74.292 45.667 70.917 45.667 47.292 54.25 47.292z"/><path fill="#472b29" d="M49.958,74.992c-0.153,0-0.306-0.05-0.433-0.15l-4.291-3.375c-0.169-0.133-0.268-0.335-0.268-0.55 V47.292c0-0.387,0.313-0.7,0.7-0.7h8.583c0.387,0,0.7,0.313,0.7,0.7v23.625c0,0.215-0.099,0.417-0.268,0.55l-4.292,3.375 C50.264,74.941,50.111,74.992,49.958,74.992z M46.367,70.577l3.591,2.824l3.592-2.824V47.992h-7.183V70.577z M54.25,70.917h0.01 H54.25z"/></g><g><path fill="#fef6aa" d="M70.02,47.292c0.794-1.891,1.354-3.882,1.354-6.271c0.1-9.073-5.451-15.291-15.325-15.291 c-2.294,0-4.289,0.306-5.984,0.918c-1.695-0.612-3.69-0.918-5.984-0.918c-9.874,0-15.424,6.219-15.424,15.291 c0,2.389,0.559,4.38,1.353,6.271H70.02z"/><path fill="#472b29" d="M70.021,47.992H30.01c-0.282,0-0.536-0.169-0.646-0.429c-0.974-2.32-1.408-4.337-1.408-6.542 c0-9.864,6.179-15.992,16.124-15.992c2.26,0,4.271,0.295,5.984,0.876c1.713-0.581,3.725-0.876,5.984-0.876 c4.905,0,8.992,1.51,11.817,4.367c2.806,2.836,4.26,6.858,4.208,11.633c0,2.197-0.435,4.214-1.408,6.534 C70.557,47.822,70.303,47.992,70.021,47.992z M30.48,46.591H69.55c0.775-1.961,1.124-3.697,1.124-5.571 c0.049-4.399-1.267-8.076-3.803-10.641c-2.557-2.584-6.299-3.951-10.822-3.951c-2.203,0-4.137,0.294-5.747,0.875 c-0.152,0.056-0.322,0.056-0.475,0c-1.61-0.581-3.544-0.875-5.747-0.875c-9.082,0-14.724,5.591-14.724,14.591 C29.356,42.895,29.705,44.63,30.48,46.591z"/></g><g><path fill="#472b29" d="M65.172,32.391c-0.06,0-0.119-0.021-0.166-0.063c-2.02-1.8-4.656-2.798-7.837-2.968 c-0.138-0.007-0.243-0.125-0.236-0.263c0.008-0.133,0.118-0.237,0.25-0.237c0.004,0,0.009,0,0.014,0 c3.25,0.173,6.065,1.243,8.142,3.094c0.104,0.092,0.112,0.25,0.021,0.353C65.31,32.362,65.24,32.391,65.172,32.391z"/></g><g><path fill="#f7931e" d="M48.988,54.538c0.001,0.006,0.002,0.012,0.003,0.018C48.99,54.55,48.989,54.544,48.988,54.538z"/></g><g><path fill="#472b29" d="M54.57,32.012c-0.2,0-0.399-0.086-0.538-0.252c-2.601-3.125-6.259-5.011-10.3-5.311 c-0.386-0.029-0.675-0.365-0.646-0.75c0.028-0.386,0.372-0.665,0.75-0.646c4.423,0.329,8.427,2.393,11.272,5.812 c0.247,0.297,0.207,0.738-0.09,0.986C54.888,31.958,54.729,32.012,54.57,32.012z"/></g><g><path fill="#472b29" d="M31.603,40.534c-0.133,0-0.243-0.104-0.25-0.237c-0.004-0.073-0.005-0.146-0.005-0.219l-0.005-0.183 c-0.183-4.335,2.348-8.15,6.604-9.957c4.765-2.023,10.205-0.851,13.858,2.987c0.096,0.1,0.092,0.258-0.008,0.354 c-0.102,0.095-0.26,0.09-0.354-0.009c-3.509-3.685-8.729-4.813-13.302-2.872c-4.06,1.724-6.474,5.354-6.3,9.476l0.004,0.198 c0.001,0.067,0.002,0.133,0.006,0.199c0.007,0.138-0.1,0.256-0.237,0.263C31.611,40.534,31.606,40.534,31.603,40.534z"/></g><g><path fill="#472b29" d="M64.752 32.087c-.057 0-.114-.019-.161-.059-1.835-1.545-4.231-2.403-7.122-2.548-.138-.007-.244-.124-.237-.262.007-.137.1-.247.263-.237 3.002.151 5.498 1.047 7.419 2.665.105.089.119.247.03.353C64.894 32.057 64.823 32.087 64.752 32.087zM67.325 35.476c-.094 0-.185-.054-.227-.145-.327-.703-.728-1.357-1.191-1.944-.086-.108-.067-.266.041-.351.108-.084.265-.067.352.042.487.618.909 1.305 1.252 2.043.059.125.004.274-.121.332C67.396 35.469 67.36 35.476 67.325 35.476zM68.466 42c-.005 0-.01 0-.016 0-.138-.009-.242-.127-.234-.265.013-.199.019-.401.019-.607.014-1.292-.117-2.515-.389-3.638-.032-.134.05-.269.185-.302.133-.03.27.05.302.185.28 1.163.416 2.428.402 3.758 0 .214-.006.426-.019.636C68.707 41.898 68.597 42 68.466 42z"/></g><g><path fill="#f7931e" d="M49.914,55.341c0.001,0.005,0.002,0.011,0.003,0.017C49.916,55.352,49.915,55.347,49.914,55.341z"/></g><g><path fill="#472b29" d="M46,57.64c-0.205,0-0.397-0.127-0.471-0.331c-0.093-0.26,0.042-0.546,0.302-0.64l7.906-2.839 c0.261-0.094,0.547,0.042,0.64,0.302c0.093,0.26-0.042,0.546-0.302,0.64l-7.906,2.839C46.113,57.63,46.056,57.64,46,57.64z"/></g><g><path fill="#472b29" d="M46,66.64c-0.205,0-0.397-0.127-0.471-0.331c-0.093-0.26,0.042-0.546,0.302-0.64l7.906-2.839 c0.261-0.094,0.547,0.042,0.64,0.302c0.093,0.26-0.042,0.546-0.302,0.64l-7.906,2.839C46.113,66.63,46.056,66.64,46,66.64z"/></g></svg>