<svg xmlns="http://www.w3.org/2000/svg"  viewBox="0 0 100 100" width="200px" height="200px"><path fill="#ee3e54" d="M13 27A2 2 0 1 0 13 31A2 2 0 1 0 13 27Z"/><path fill="#f1bc19" d="M77 12A1 1 0 1 0 77 14A1 1 0 1 0 77 12Z"/><path fill="#fce0a2" d="M50 13A37 37 0 1 0 50 87A37 37 0 1 0 50 13Z"/><path fill="#f1bc19" d="M83 11A4 4 0 1 0 83 19A4 4 0 1 0 83 11Z"/><path fill="#ee3e54" d="M87 22A2 2 0 1 0 87 26A2 2 0 1 0 87 22Z"/><path fill="#fbcd59" d="M81 74A2 2 0 1 0 81 78 2 2 0 1 0 81 74zM15 59A4 4 0 1 0 15 67 4 4 0 1 0 15 59z"/><path fill="#ee3e54" d="M25 85A2 2 0 1 0 25 89A2 2 0 1 0 25 85Z"/><path fill="#fff" d="M18.5 51A2.5 2.5 0 1 0 18.5 56A2.5 2.5 0 1 0 18.5 51Z"/><path fill="#f1bc19" d="M21 66A1 1 0 1 0 21 68A1 1 0 1 0 21 66Z"/><path fill="#fff" d="M80 33A1 1 0 1 0 80 35A1 1 0 1 0 80 33Z"/><g><path fill="#fefdef" d="M56.169,25.765c-2.342,0-4.386,0.303-6.118,0.909c-1.732-0.606-3.772-0.909-6.118-0.909 c-10.099,0-15.777,6.161-15.777,15.146c0,6.464,4.249,9.996,6.084,16.558c2.039,7.475,2.854,16.763,7.65,16.763 c2.551,0,3.742-1.724,3.742-4.958c0-4.544,1.259-10.389,2.176-15.44c0.512-2.423,3.976-2.423,4.386,0 c0.917,4.949,2.176,11.037,2.176,15.581c0,3.23,1.19,4.817,3.742,4.817c4.791,0,5.61-9.391,7.65-16.763 c1.835-6.562,6.084-10.095,6.084-16.558C71.946,31.926,66.267,25.765,56.169,25.765z"/><path fill="#f7931e" d="M48.992,58.949c0.004,0.004,0.004,0.013,0.004,0.017C48.997,58.962,48.997,58.954,48.992,58.949z"/><path fill="#472b29" d="M58.11,74.996c-2.991,0-4.505-1.877-4.505-5.581c0-3.951-0.977-9.122-1.835-13.683l-0.329-1.758 c-0.145-0.866-0.802-1.182-1.37-1.19c-0.013,0-0.021,0-0.034,0c-0.572,0-1.297,0.316-1.485,1.212 c-0.141,0.772-0.294,1.587-0.448,2.411c-0.84,4.48-1.711,9.109-1.711,12.872c0,4.727-2.449,5.721-4.505,5.721 c-4.386,0-5.76-6.058-7.215-12.467c-0.363-1.617-0.747-3.294-1.173-4.86c-0.73-2.603-1.856-4.732-2.948-6.788 c-1.626-3.068-3.161-5.965-3.161-9.975c0-9.813,6.336-15.91,16.537-15.91c2.312,0,4.369,0.294,6.122,0.866 c1.754-0.572,3.81-0.866,6.118-0.866c5.124,0,9.365,1.553,12.266,4.493c2.786,2.812,4.228,6.767,4.173,11.43 c0,3.998-1.536,6.895-3.161,9.962c-1.092,2.061-2.223,4.185-2.948,6.792c-0.435,1.574-0.823,3.268-1.195,4.906 C63.848,68.967,62.479,74.996,58.11,74.996z M50.033,51.253c0.026,0,0.047,0,0.068,0c1.459,0.03,2.603,1.015,2.846,2.457 l0.324,1.736c0.875,4.629,1.86,9.877,1.86,13.968c0,3.571,1.506,4.053,2.978,4.053c3.149,0,4.386-5.453,5.7-11.225 c0.375-1.655,0.768-3.366,1.212-4.975c0.772-2.769,1.941-4.97,3.072-7.099c1.6-3.021,2.987-5.632,2.987-9.258 c0.047-4.254-1.242-7.829-3.733-10.346c-2.611-2.637-6.477-4.036-11.178-4.036c-2.248,0-4.224,0.294-5.866,0.866 c-0.162,0.06-0.341,0.06-0.503,0c-1.647-0.572-3.618-0.866-5.871-0.866c-9.258,0-15.01,5.512-15.01,14.382 c0,3.627,1.387,6.238,2.987,9.258c1.131,2.129,2.295,4.33,3.068,7.099c0.439,1.604,0.823,3.294,1.195,4.928 c1.314,5.798,2.556,11.272,5.721,11.272c1.276,0,2.978-0.435,2.978-4.19c0-3.904,0.883-8.606,1.736-13.149 c0.154-0.823,0.307-1.634,0.448-2.428C47.358,52.243,48.578,51.253,50.033,51.253z"/><path fill="#472b29" d="M65.064 32.237c-.064 0-.132-.021-.183-.068-2.001-1.813-4.612-2.82-7.765-2.991-.149-.009-.265-.137-.256-.29.004-.149.124-.265.286-.256 3.234.175 6.037 1.259 8.102 3.132.111.102.119.273.017.384C65.214 32.207 65.137 32.237 65.064 32.237zM43.45 60.729c-.013 0-.026 0-.038 0-.149-.021-.252-.162-.23-.311.226-1.613.499-3.336.84-5.278.107-.597.213-1.178.316-1.741l.017-.094c.576-2.718 2.961-4.599 5.798-4.548.149 0 .273.124.269.273 0 .149-.124.273-.273.273-.03.004-.055 0-.085 0-2.534 0-4.655 1.681-5.175 4.117l-.013.077c-.102.563-.209 1.143-.316 1.741-.337 1.933-.614 3.652-.84 5.261C43.702 60.63 43.587 60.729 43.45 60.729zM41.867 71.327c-.149 0-.273-.124-.273-.273 0-.154.119-.273.273-.273.286 0 .58 0 .58-1.455 0-1.088.051-2.291.145-3.571.013-.154.149-.265.294-.252.149.009.26.141.252.29-.094 1.267-.145 2.457-.145 3.533C42.994 70.99 42.563 71.327 41.867 71.327zM54.539 32.147c-.222 0-.439-.098-.593-.282-2.568-3.14-6.186-5.034-10.176-5.337-.422-.034-.738-.401-.704-.823.03-.418.405-.725.819-.704 4.412.333 8.405 2.428 11.242 5.892.269.329.222.811-.107 1.079C54.88 32.088 54.709 32.147 54.539 32.147zM52.282 33.956c-.085 0-.166-.038-.218-.111-1.882-2.513-5.111-4.284-8.422-4.612-2.167-.213-5.363.077-8.268 2.684-.111.098-.286.09-.384-.021-.102-.111-.09-.286.021-.384 3.051-2.739 6.408-3.046 8.687-2.82 3.46.341 6.831 2.193 8.802 4.83.09.119.068.29-.055.38C52.397 33.939 52.337 33.956 52.282 33.956zM67.419 35.898c-.107 0-.205-.064-.252-.171-.303-.721-.687-1.399-1.139-2.018-.09-.124-.064-.294.055-.384.124-.09.294-.064.384.06.482.653.887 1.37 1.207 2.133.055.141-.009.299-.149.358C67.492 35.889 67.453 35.898 67.419 35.898zM37.5 40.75h-2c-.138 0-.25-.112-.25-.25s.112-.25.25-.25h2c.138 0 .25.112.25.25S37.638 40.75 37.5 40.75zM33.5 40.75h-5c-.138 0-.25-.112-.25-.25s.112-.25.25-.25h5c.138 0 .25.112.25.25S33.638 40.75 33.5 40.75z"/><path fill="#83ccb7" d="M44.5 35.47H55.5V45.671H44.5z"/><path fill="#472b29" d="M55.5 38.219c-.138 0-.25-.112-.25-.25v-2.25h-2.194c-.138 0-.25-.112-.25-.25s.112-.25.25-.25H55.5c.138 0 .25.112.25.25v2.5C55.75 38.107 55.638 38.219 55.5 38.219zM51.833 35.72H50.61c-.138 0-.25-.112-.25-.25s.112-.25.25-.25h1.223c.138 0 .25.112.25.25S51.971 35.72 51.833 35.72zM55.5 45.719h-11c-.138 0-.25-.112-.25-.25V35.47c0-.138.112-.25.25-.25h2.444c.138 0 .25.112.25.25s-.112.25-.25.25H44.75v9.499h10.5v-2.25c0-.138.112-.25.25-.25s.25.112.25.25v2.5C55.75 45.607 55.638 45.719 55.5 45.719z"/><path fill="#fcba7f" d="M47.5 38A0.5 0.5 0 1 0 47.5 39A0.5 0.5 0 1 0 47.5 38Z"/><path fill="#472b29" d="M47.5,39.125c-0.345,0-0.625-0.28-0.625-0.625s0.28-0.625,0.625-0.625s0.625,0.28,0.625,0.625 S47.845,39.125,47.5,39.125z M47.5,38.125c-0.207,0-0.375,0.168-0.375,0.375s0.168,0.375,0.375,0.375s0.375-0.168,0.375-0.375 S47.707,38.125,47.5,38.125z"/><path fill="#fcba7f" d="M52.5 38A0.5 0.5 0 1 0 52.5 39A0.5 0.5 0 1 0 52.5 38Z"/><path fill="#472b29" d="M52.5,39.125c-0.345,0-0.625-0.28-0.625-0.625s0.28-0.625,0.625-0.625s0.625,0.28,0.625,0.625 S52.845,39.125,52.5,39.125z M52.5,38.125c-0.207,0-0.375,0.168-0.375,0.375s0.168,0.375,0.375,0.375s0.375-0.168,0.375-0.375 S52.707,38.125,52.5,38.125z"/><g><path fill="#fcba7f" d="M47.5 42A0.5 0.5 0 1 0 47.5 43A0.5 0.5 0 1 0 47.5 42Z"/><path fill="#472b29" d="M47.5,43.125c-0.345,0-0.625-0.28-0.625-0.625s0.28-0.625,0.625-0.625s0.625,0.28,0.625,0.625 S47.845,43.125,47.5,43.125z M47.5,42.125c-0.207,0-0.375,0.168-0.375,0.375s0.168,0.375,0.375,0.375s0.375-0.168,0.375-0.375 S47.707,42.125,47.5,42.125z"/></g><g><path fill="#fcba7f" d="M52.5 42A0.5 0.5 0 1 0 52.5 43A0.5 0.5 0 1 0 52.5 42Z"/><path fill="#472b29" d="M52.5,43.125c-0.345,0-0.625-0.28-0.625-0.625s0.28-0.625,0.625-0.625s0.625,0.28,0.625,0.625 S52.845,43.125,52.5,43.125z M52.5,42.125c-0.207,0-0.375,0.168-0.375,0.375s0.168,0.375,0.375,0.375s0.375-0.168,0.375-0.375 S52.707,42.125,52.5,42.125z"/></g><g><path fill="#472b29" d="M68.596,42.659c0.031-0.145-0.062-0.288-0.207-0.318c-0.143-0.034-0.288,0.062-0.318,0.207 l-0.1,0.471c0,0-0.002-0.002-0.002-0.001c-0.382,1.971-1.336,3.728-2.49,5.82c-1.22,2.201-2.598,4.697-3.439,7.867 c-0.431,1.647-0.802,3.366-1.169,5.052c-0.542,2.521-1.805,8.379-2.876,9.019c-0.213-0.013-0.444-0.132-0.444-1.451 c0-0.149-0.124-0.273-0.273-0.273c-0.149,0-0.273,0.124-0.273,0.273c0,1.664,0.401,2.001,1.054,2.001 c0.038,0,0.077-0.009,0.111-0.026c1.229-0.555,2.274-4.962,3.238-9.45c0.358-1.66,0.73-3.37,1.16-5.009 c0.823-3.102,2.184-5.563,3.388-7.744c1.069-1.932,1.966-3.588,2.418-5.402c0-0.001,0.002-0.002,0.002-0.003L68.596,42.659z"/></g><g><path fill="#472b29" d="M71.5,40.75h-32c-0.138,0-0.25-0.112-0.25-0.25s0.112-0.25,0.25-0.25h32 c0.138,0,0.25,0.112,0.25,0.25S71.638,40.75,71.5,40.75z"/></g></g></svg>